<svg width="80" height="76" viewBox="0 0 80 76" fill="none" xmlns="http://www.w3.org/2000/svg">
<g clip-path="url(#clip0_113_726)">
<path d="M79.85 54.926C79.8858 54.5774 79.9117 54.2254 79.9317 53.8718C79.9558 53.4531 54.7558 29.5234 54.7558 29.5234H54.1533C54.1533 29.5234 79.6958 56.4881 79.85 54.926Z" fill="url(#paint0_linear_113_726)"/>
<path d="M26.085 46.625C26.0516 46.6984 26.0183 46.7717 25.9841 46.8451C25.9483 46.9219 25.9116 46.9986 25.875 47.0745C25.0716 48.7509 37.1208 60.5397 38.09 59.1077C38.1341 59.0443 38.1783 58.9776 38.2225 58.9142C38.2716 58.8392 38.32 58.7674 38.3683 58.6924C39.1433 57.5148 26.4291 45.8593 26.085 46.625Z" fill="url(#paint1_linear_113_726)"/>
<path d="M43.1116 63.2026C43.0775 63.2777 42.835 63.688 42.6133 63.9049C42.5758 63.9799 54.3758 75.6921 54.3758 75.6921H55.4383C55.4391 75.6921 44.3616 63.698 43.1116 63.2026Z" fill="url(#paint2_linear_113_726)"/>
<path d="M79.9483 53.6591C79.3967 65.9025 69.2758 75.6922 56.9108 75.6922H55.2392L42.8908 63.5172C43.9067 62.0836 44.8508 60.5982 45.6917 59.0494H56.9108C60.4592 59.0494 63.3467 56.1612 63.3467 52.6083C63.3467 49.057 60.4592 46.1671 56.9108 46.1671H50.2717C50.7775 43.4908 51.0542 40.731 51.0542 37.9078C51.0542 35.0413 50.7725 32.2423 50.2483 29.5234H54.3725L79.8758 54.6733C79.9058 54.3363 79.93 53.9994 79.9483 53.6591ZM6.70833 0H0V16.6429H6.70833C18.425 16.6429 27.9583 26.1815 27.9583 37.9078C27.9583 41.098 27.2475 44.1263 25.9842 46.8452L38.2225 58.9143C42.2408 52.8968 44.59 45.6726 44.59 37.9078C44.59 17.0056 27.5958 0 6.70833 0Z" fill="url(#paint3_linear_113_726)"/>
<path d="M56.9109 0H29.7458C36.3808 4.05417 41.875 9.80306 45.6183 16.6429H56.9109C60.4592 16.6429 63.3467 19.5311 63.3467 23.084C63.3467 26.6361 60.4592 29.5243 56.9109 29.5243H54.3733L79.8767 54.6741C79.9367 53.9919 79.9742 53.3055 79.9742 52.6083C79.9742 46.9978 77.9625 41.8511 74.6225 37.8453C77.9625 33.8412 79.9742 28.6936 79.9742 23.084C79.9742 10.356 69.6292 0 56.9109 0Z" fill="url(#paint4_linear_113_726)"/>
<path d="M55.2392 75.6923H29.94C35.0325 72.5447 39.435 68.3896 42.8908 63.5173L55.2392 75.6923ZM38.2225 58.9143L25.985 46.8452C22.6042 54.117 15.2367 59.1745 6.70833 59.1745H0V75.8157H6.70833C19.8367 75.8157 31.4242 69.0952 38.2225 58.9143Z" fill="url(#paint5_linear_113_726)"/>
</g>
<defs>
<linearGradient id="paint0_linear_113_726" x1="-2076.09" y1="-2334.4" x2="2667.17" y2="2787.54" gradientUnits="userSpaceOnUse">
<stop stop-color="#F9A03C"/>
<stop offset="1" stop-color="#F7974E"/>
</linearGradient>
<linearGradient id="paint1_linear_113_726" x1="-3227.75" y1="-3100.19" x2="1277.95" y2="1268.71" gradientUnits="userSpaceOnUse">
<stop stop-color="#F9A03C"/>
<stop offset="1" stop-color="#F7974E"/>
</linearGradient>
<linearGradient id="paint2_linear_113_726" x1="-2819.47" y1="-3208.63" x2="1126.46" y2="1436.95" gradientUnits="userSpaceOnUse">
<stop stop-color="#F9A03C"/>
<stop offset="1" stop-color="#F7974E"/>
</linearGradient>
<linearGradient id="paint3_linear_113_726" x1="906.511" y1="-137.888" x2="6206.12" y2="7251" gradientUnits="userSpaceOnUse">
<stop stop-color="#F26D58"/>
<stop offset="1" stop-color="#F9A03C"/>
</linearGradient>
<linearGradient id="paint4_linear_113_726" x1="825.546" y1="210.935" x2="6322.08" y2="3528.93" gradientUnits="userSpaceOnUse">
<stop stop-color="#B84E51"/>
<stop offset="1" stop-color="#F68E48"/>
</linearGradient>
<linearGradient id="paint5_linear_113_726" x1="2595.37" y1="726.679" x2="2669.85" y2="4320.9" gradientUnits="userSpaceOnUse">
<stop stop-color="#F9A03C"/>
<stop offset="1" stop-color="#F7974E"/>
</linearGradient>
<clipPath id="clip0_113_726">
<rect width="80" height="76" fill="white"/>
</clipPath>
</defs>
</svg>
