<svg width="51" height="75" viewBox="0 0 51 75" fill="none" xmlns="http://www.w3.org/2000/svg">
<g clip-path="url(#clip0_113_752)">
<path d="M27.1149 25.1042H12.9257C6.06875 25.1042 0.510132 19.5544 0.510132 12.7083C0.510132 5.86229 6.06875 0.3125 12.9257 0.3125H27.1149V25.1042Z" fill="#E64A19"/>
<path d="M25.3412 49.8957H12.9257C6.06875 49.8957 0.510132 44.3459 0.510132 37.4998C0.510132 30.6538 6.06875 25.104 12.9257 25.104H25.3412V49.8957Z" fill="#7C4DFF"/>
<path d="M12.9257 74.6877C6.06875 74.6877 0.510132 69.1379 0.510132 62.2918C0.510132 55.4458 6.06875 49.896 12.9257 49.896H25.3412V62.2918C25.3412 69.1379 19.7826 74.6877 12.9257 74.6877Z" fill="#66BB6A"/>
<path d="M37.7568 25.1042H25.3412V0.3125H37.7568C44.6137 0.3125 50.1723 5.86229 50.1723 12.7083C50.1723 19.5544 44.6137 25.1042 37.7568 25.1042Z" fill="#FF7043"/>
<path d="M37.7568 49.8957C44.6137 49.8957 50.1723 44.3459 50.1723 37.4998C50.1723 30.6538 44.6137 25.104 37.7568 25.104C30.8998 25.104 25.3412 30.6538 25.3412 37.4998C25.3412 44.3459 30.8998 49.8957 37.7568 49.8957Z" fill="#29B6F6"/>
</g>
<defs>
<clipPath id="clip0_113_752">
<rect width="51" height="75" fill="white"/>
</clipPath>
</defs>
</svg>
