<svg width="54" height="74" viewBox="0 0 54 74" fill="none" xmlns="http://www.w3.org/2000/svg">
<g clip-path="url(#clip0_113_738)">
<path d="M0.333313 58.6666L25.7233 11.0599C26.2583 10.0566 27.705 10.0749 28.2133 11.0933L37 28.6666L0.333313 58.6666Z" fill="#FF8F00"/>
<path d="M0.333313 58.6531L9.57664 1.65478C9.81831 0.163112 11.8216 -0.160222 12.5216 1.17978L30.3333 35.3198L0.333313 58.6531Z" fill="#FFA000"/>
<path d="M0.34668 58.6432L0.680013 58.3815L29.895 34.4799L21.655 18.6865L0.34668 58.6432Z" fill="#FF6F00"/>
<path d="M0.333313 58.6669L44.7766 15.8119C45.7083 14.9136 47.2633 15.4436 47.4533 16.7236L53.6666 58.6669L28.6666 73.2386C27.6516 73.8086 26.4133 73.8086 25.3983 73.2386L0.333313 58.6669Z" fill="#FFC400"/>
</g>
<defs>
<clipPath id="clip0_113_738">
<rect width="54" height="74" fill="white"/>
</clipPath>
</defs>
</svg>
