<svg width="72" height="58" viewBox="0 0 72 58" fill="none" xmlns="http://www.w3.org/2000/svg">
<g clip-path="url(#clip0_113_688)">
<path d="M8.28834 8.0715C8.15501 4.21984 11.1567 0.666504 15.215 0.666504H56.7917C60.85 0.666504 63.8517 4.21984 63.7167 8.0715C63.5883 11.7732 63.755 16.5665 64.9617 20.4765C66.1717 24.3982 68.2133 26.8765 71.5567 27.1948V30.8065C68.2133 31.1248 66.1733 33.6032 64.9617 37.5248C63.755 41.4332 63.5883 46.2282 63.7167 49.9298C63.85 53.7798 60.8483 57.3332 56.7917 57.3332H15.215C11.1583 57.3332 8.15501 53.7798 8.29001 49.9282C8.41834 46.2265 8.25167 41.4332 7.04501 37.5232C5.83501 33.6015 3.78834 31.1232 0.445007 30.8048V27.1932C3.78834 26.8748 5.83334 24.3965 7.04501 20.4748C8.25001 16.5665 8.41834 11.7732 8.28834 8.0715Z" fill="#7C4DFF"/>
<path d="M41.1216 28.1066V28.06C44.21 27.5266 46.62 24.6316 46.62 21.4433C46.62 19.19 45.7533 17.28 44.1133 15.9233C42.4783 14.57 40.185 13.855 37.4783 13.855H25.0833V44.1333H37.5416C40.7783 44.1333 43.4666 43.3433 45.3133 41.8466C47.1616 40.3483 48.14 38.1683 48.14 35.5416C48.1383 31.5733 45.3216 28.5933 41.1216 28.1066ZM35.3166 26.68H30.015V17.8166H36.3216C39.7816 17.8166 41.6866 19.335 41.6866 22.0916C41.6883 25.05 39.425 26.68 35.3166 26.68ZM30.015 30.39H36.28C40.8066 30.39 43.1 32.025 43.1 35.25C43.1 38.47 40.8383 40.1716 36.5583 40.1716H30.015V30.39Z" fill="white"/>
</g>
<defs>
<clipPath id="clip0_113_688">
<rect width="72" height="58" fill="white"/>
</clipPath>
</defs>
</svg>
