<svg width="67" height="67" viewBox="0 0 67 67" fill="none" xmlns="http://www.w3.org/2000/svg">
<g clip-path="url(#clip0_113_673)">
<path d="M33.5092 0.666992C24.7989 0.666992 16.4454 4.12712 10.2864 10.2862C4.12731 16.4453 0.667175 24.7988 0.667175 33.509C0.667175 42.2192 4.12731 50.5727 10.2864 56.7318C16.4454 62.8909 24.7989 66.351 33.5092 66.351C42.2194 66.351 50.5729 62.8909 56.732 56.7318C62.8911 50.5727 66.3512 42.2192 66.3512 33.509C66.3512 24.7988 62.8911 16.4453 56.732 10.2862C50.5729 4.12712 42.2194 0.666992 33.5092 0.666992Z" fill="white"/>
<path d="M7.17139 33.5094C7.17139 43.9398 13.2295 52.9446 22.017 57.2149L9.44975 22.7892C7.98956 26.0668 7.17139 29.6836 7.17139 33.5094ZM51.2949 32.1825C51.2949 28.928 49.545 26.6677 48.5457 24.9194C47.2074 22.7316 45.9513 20.9076 45.9513 18.7428C45.9513 16.3311 48.3729 14.0676 50.9574 14.0676C51.0743 14.0676 51.1797 14.0774 51.2966 14.0807C46.6147 9.77753 40.3706 7.16992 33.5108 7.16992C24.6394 7.16992 16.7968 11.5587 12.0244 18.2802C12.3998 18.4021 12.5298 18.3444 13.0303 18.3444C15.7778 18.3444 20.0497 18.0152 20.0497 18.0152C21.4655 17.9214 21.6383 20.0104 20.2127 20.1816C20.2127 20.1816 18.7904 20.3545 17.2034 20.4318L26.9671 49.6983L32.7289 32.4114L28.4438 20.4796C27.0264 20.4039 25.6798 20.2294 25.6798 20.2294C24.2608 20.1372 24.4254 17.9658 25.8411 18.0629C25.8411 18.0629 30.2003 18.3922 32.7832 18.3922C35.5406 18.3922 39.8027 18.0629 39.8027 18.0629C41.2201 17.9691 41.3913 20.0581 39.9739 20.2294C39.9739 20.2294 38.5417 20.4022 36.958 20.4796L46.6559 49.4694L49.2882 40.7017C50.6282 37.2776 51.2949 34.4461 51.2949 32.1825ZM33.9718 35.8075L26.0699 58.7755C28.4339 59.4768 30.9263 59.8488 33.5108 59.8488C36.5744 59.8488 39.5179 59.3155 42.2621 58.3557C42.1963 58.2388 42.1222 58.1203 42.0679 57.9935L33.9718 35.8075ZM56.627 20.8631C56.7439 21.7027 56.8048 22.6065 56.8048 23.5712C56.8048 26.2512 56.3011 29.2523 54.7981 33.0155L46.7563 56.2848C54.589 51.7215 59.8487 43.2253 59.8487 33.5094C59.8487 28.9313 58.6782 24.6264 56.627 20.8631Z" fill="#01579B"/>
<path d="M0.584839 33.5093C0.584839 51.6572 15.3514 66.4336 33.5075 66.4336C51.6669 66.4336 66.4335 51.6572 66.4335 33.5093C66.4335 15.3614 51.6669 0.584961 33.5092 0.584961C15.3514 0.584961 0.584839 15.3614 0.584839 33.5093ZM3.86904 33.5093C3.86904 17.1722 17.1606 3.87904 33.5075 3.87904C49.8544 3.87904 63.1493 17.1722 63.1493 33.5093C63.1493 49.8463 49.8544 63.1428 33.5092 63.1428C17.1655 63.1428 3.86904 49.8463 3.86904 33.5093Z" fill="#01579B"/>
</g>
<defs>
<clipPath id="clip0_113_673">
<rect width="67" height="67" fill="white"/>
</clipPath>
</defs>
</svg>
