<svg width="60" height="60" viewBox="0 0 60 60" fill="none" xmlns="http://www.w3.org/2000/svg">
<g clip-path="url(#clip0_110_663)">
<path d="M60 0H0V60H60V0Z" fill="#1976D2"/>
<path d="M35.8167 26.6665H13.7117V32.1065H21.64V56.6665H27.9217V32.1065H35.8167V26.6665Z" fill="white"/>
<path d="M55.3234 33.4736C55.3234 33.4736 52.345 31.4869 48.9784 31.4869C45.6117 31.4869 44.4 33.0869 44.4 34.7969C44.4 39.2102 56.7017 38.7686 56.7017 47.6502C56.7017 61.3319 37.945 55.2636 37.945 55.2636V48.7002C37.945 48.7002 41.5317 51.4036 45.8334 51.4036C50.135 51.4036 49.9717 48.5902 49.9717 48.2036C49.9717 44.1219 37.78 44.1219 37.78 35.0736C37.78 22.7719 55.5434 27.6252 55.5434 27.6252L55.3234 33.4736Z" fill="white"/>
</g>
<defs>
<clipPath id="clip0_110_663">
<rect width="60" height="60" fill="white"/>
</clipPath>
</defs>
</svg>
