<svg width="60" height="60" viewBox="0 0 60 60" fill="none" xmlns="http://www.w3.org/2000/svg">
<g clip-path="url(#clip0_113_747)">
<path d="M0 6.66667C0 2.985 2.985 0 6.66667 0H53.3333C57.015 0 60 2.985 60 6.66667V53.3333C60 57.015 57.015 60 53.3333 60H6.66667C2.985 60 0 57.015 0 53.3333V6.66667Z" fill="#FF41C8"/>
<path d="M5 5V55H55V5H5ZM21.8217 26.1583L25.0117 18.02H30.4967L24.93 29.7717L30.6267 41.7183H25.0767L21.8217 33.4333L18.5833 41.7183H13.0333L18.73 29.7717L13.1467 18.02H18.6317L21.8217 26.1583ZM31.7817 32.3767C31.7817 29.49 32.27 27.3367 33.2467 25.915C34.2233 24.4933 35.6433 23.7833 37.5117 23.7833C38.8667 23.7833 39.9967 24.37 40.8967 25.5417V16.72H45.535V41.72H41.3517L41.14 39.93C40.1967 41.3417 38.98 42.0467 37.4933 42.0467C35.65 42.0467 34.2417 41.3417 33.27 39.93C32.2983 38.5183 31.8017 36.4467 31.78 33.7133L31.7817 32.3767ZM36.405 33.5317C36.405 35.2683 36.5883 36.4817 36.9583 37.17C37.3283 37.8583 37.9517 38.2033 38.83 38.2033C39.7417 38.2033 40.43 37.7967 40.8967 36.9833V28.9433C40.4417 28.075 39.7567 27.6417 38.8467 27.6417C38 27.6417 37.3817 27.9833 36.9917 28.6667C36.6017 29.35 36.405 30.5667 36.405 32.3133V33.5317Z" fill="#16020B"/>
</g>
<defs>
<clipPath id="clip0_113_747">
<rect width="60" height="60" fill="white"/>
</clipPath>
</defs>
</svg>
