<svg width="78" height="70" viewBox="0 0 78 70" fill="none" xmlns="http://www.w3.org/2000/svg">
<g clip-path="url(#clip0_151_160)">
<path d="M39 51.6668C17.5 51.6668 0.666687 44.3335 0.666687 35.0002C0.666687 25.6668 17.5 18.3335 39 18.3335C60.5 18.3335 77.3334 25.6668 77.3334 35.0002C77.3334 44.3335 60.5 51.6668 39 51.6668ZM39 21.6668C18 21.6668 4.00002 28.5002 4.00002 35.0002C4.00002 41.5002 18 48.3335 39 48.3335C60 48.3335 74 41.5002 74 35.0002C74 28.5002 60 21.6668 39 21.6668Z" fill="#80DEEA"/>
<path d="M24.1666 69.3331C22.5 69.3331 21.1666 68.9998 19.8333 68.1664C11.6666 63.4998 13.8333 45.3331 24.5 26.6664C29.5 17.9998 35.6666 10.6664 41.6666 5.99977C48.1666 0.999774 54 -0.500227 58 1.83311C62.1666 4.16644 63.6666 9.99977 62.6666 18.1664C61.6666 25.8331 58.3333 34.8331 53.3333 43.4998C48.3333 52.1664 42.1666 59.4998 36.1666 64.1664C31.8333 67.4998 27.6666 69.3331 24.1666 69.3331ZM53.8333 3.99977C51.1666 3.99977 47.6666 5.49977 43.8333 8.49977C38.1666 12.9998 32.3333 19.9998 27.5 28.3331C17 46.4998 16 62.1664 21.5 65.3331C24.3333 66.9998 29 65.4998 34.1666 61.4998C39.8333 56.9998 45.6666 49.9998 50.5 41.6664C55.3333 33.3331 58.5 24.8331 59.5 17.6664C60.3333 10.9998 59.3333 6.33311 56.5 4.66644C55.6666 4.33311 54.8333 3.99977 53.8333 3.99977Z" fill="#80DEEA"/>
<path d="M54 69.3334C45.6667 69.3334 33.6667 59.1668 24.6667 43.3335C13.8333 24.6668 11.6667 6.50012 19.8333 1.83345C28 -2.83322 42.6667 8.00012 53.5 26.6668C58.5 35.3335 61.8333 44.3335 62.8333 52.0001C64 60.1668 62.3333 65.8334 58.1667 68.3334C56.8333 69.0001 55.5 69.3334 54 69.3334ZM21.5 4.66678C16 7.83345 17 23.5001 27.5 41.6668C38 59.8335 51 68.5001 56.5 65.3335C59.3333 63.6668 60.3333 59.0001 59.5 52.3335C58.5 45.1668 55.3333 36.6668 50.5 28.3335C40 10.1668 27 1.50012 21.5 4.66678Z" fill="#80DEEA"/>
<path d="M39 41.6668C42.6819 41.6668 45.6666 38.6821 45.6666 35.0002C45.6666 31.3183 42.6819 28.3335 39 28.3335C35.3181 28.3335 32.3333 31.3183 32.3333 35.0002C32.3333 38.6821 35.3181 41.6668 39 41.6668Z" fill="#80DEEA"/>
</g>
<defs>
<clipPath id="clip0_151_160">
<rect width="78" height="70" fill="white"/>
</clipPath>
</defs>
</svg>
