<svg width="84" height="82" viewBox="0 0 84 82" fill="none" xmlns="http://www.w3.org/2000/svg">
<g clip-path="url(#clip0_113_804)">
<path d="M29.0238 81.3049C30.3036 80.7541 31.2 79.4815 31.2 78.0001V68.2801C31.2 67.9255 31.2288 67.5565 31.2738 67.1821C31.2486 67.1893 31.2252 67.1947 31.2 67.2001C31.2 67.2001 25.8 67.2001 24.72 67.2001C22.02 67.2001 19.68 66.1201 18.6 63.9601C17.34 61.6201 16.8 57.6601 13.56 55.5001C13.02 55.1401 13.38 54.6001 14.46 54.6001C15.54 54.7801 17.88 56.2201 19.32 58.2001C20.94 60.1801 22.56 61.8001 25.44 61.8001C29.9166 61.8001 32.316 61.5751 33.7596 60.8011C35.4408 58.3009 37.7682 56.4001 40.2 56.4001V56.3551C29.9976 56.0275 23.4798 52.6363 20.445 47.4001C13.848 47.4757 8.10421 48.1291 4.82641 48.6727C4.72201 48.0841 4.63201 47.4919 4.55461 46.8961C7.78921 46.3633 13.272 45.7315 19.5756 45.6109C19.374 45.1141 19.1994 44.6047 19.0518 44.0827C12.732 43.7623 7.27801 44.0125 4.31521 44.2573C4.27921 43.6597 4.23061 43.0639 4.22341 42.4591C7.19161 42.2161 12.498 41.9731 18.6558 42.2593C18.5136 41.3593 18.4218 40.4395 18.4218 39.4819C18.4218 36.4219 19.5018 33.1819 21.4818 30.4819C20.5818 27.4219 19.3218 20.9419 21.8418 18.6019C26.7018 18.6019 30.1218 20.9419 31.7418 22.3819C34.8 21.1201 38.22 20.4001 42 20.4001C45.78 20.4001 49.2 21.1201 52.08 22.3801C53.7 20.9401 57.12 18.6001 61.98 18.6001C64.68 21.1201 63.24 27.6001 62.34 30.4801C64.32 33.1801 65.4 36.2401 65.22 39.4801C65.22 40.3513 65.139 41.1919 65.022 42.0163C71.3202 41.7067 76.7706 41.9551 79.7892 42.1999C79.7856 42.8065 79.7298 43.3987 79.6974 43.9981C76.6896 43.7497 71.1024 43.4941 64.6512 43.8379C64.491 44.4427 64.2966 45.0313 64.0662 45.6019C70.449 45.6847 76.0632 46.3021 79.4526 46.8421C79.3752 47.4397 79.2852 48.0319 79.1808 48.6187C75.7392 48.0679 69.873 47.4235 63.1986 47.3911C60.2016 52.5715 53.8026 55.9501 43.8 56.3443V56.4001C48.48 56.4001 52.8 63.4201 52.8 68.2801V78.0001C52.8 79.4815 53.6964 80.7541 54.9762 81.3049C71.466 75.8473 83.4 60.2953 83.4 42.0001C83.4 19.1725 64.8294 0.600098 42 0.600098C19.1706 0.600098 0.600006 19.1725 0.600006 42.0001C0.600006 60.2953 12.534 75.8473 29.0238 81.3049Z" fill="black"/>
</g>
<defs>
<clipPath id="clip0_113_804">
<rect width="84" height="82" fill="white"/>
</clipPath>
</defs>
</svg>
