<svg width="74" height="56" viewBox="0 0 74 56" fill="none" xmlns="http://www.w3.org/2000/svg">
<g clip-path="url(#clip0_113_669)">
<path d="M63.445 32.2598C60.8817 32.2731 58.6617 32.8881 56.8017 33.8064C56.1217 32.4481 55.4317 31.2531 55.3167 30.3648C55.1817 29.3281 55.025 28.7081 55.1883 27.4731C55.3517 26.2381 56.0667 24.4881 56.0567 24.3564C56.0467 24.2248 55.8967 23.5964 54.4184 23.5848C52.94 23.5748 51.675 23.8698 51.5267 24.2598C51.3783 24.6498 51.0933 25.5281 50.9167 26.4448C50.6583 27.7848 47.965 32.5664 46.4367 35.0664C45.9367 34.0898 45.5117 33.2298 45.4234 32.5498C45.2884 31.5131 45.1317 30.8931 45.295 29.6581C45.4584 28.4231 46.1734 26.6731 46.1633 26.5414C46.1534 26.4098 46.0033 25.7814 44.525 25.7698C43.0467 25.7598 41.7817 26.0548 41.6334 26.4448C41.485 26.8348 41.325 27.7464 41.0233 28.6298C40.72 29.5114 37.1417 37.4864 36.2034 39.5548C35.725 40.6081 35.31 41.4548 35.0167 42.0314L35.015 42.0281C35.015 42.0281 34.9967 42.0664 34.9667 42.1314C34.715 42.6231 34.5667 42.8948 34.5667 42.8948C34.5667 42.8948 34.5683 42.8981 34.5717 42.9048C34.3717 43.2664 34.1584 43.6014 34.0534 43.6014C33.98 43.6014 33.8317 42.6398 34.085 41.3198C34.6184 38.5531 35.8967 34.2398 35.885 34.0898C35.8783 34.0131 36.1234 33.2614 35.05 32.8681C34.0067 32.4864 33.635 33.1231 33.54 33.1248C33.4483 33.1264 33.38 33.3498 33.38 33.3498C33.38 33.3498 34.5417 28.4981 31.1633 28.4981C29.05 28.4981 26.1234 30.8098 24.6817 32.9048C23.7717 33.4014 21.8233 34.4648 19.7584 35.5998C18.965 36.0364 18.155 36.4814 17.3867 36.9048C17.335 36.8464 17.2817 36.7898 17.2283 36.7314C13.13 32.3598 5.55668 29.2681 5.87668 23.3898C5.99335 21.2531 6.73668 15.6264 20.4317 8.8031C31.65 3.2131 40.6317 4.75143 42.1834 8.15976C44.4 13.0314 37.3834 22.0831 25.7334 23.3898C21.295 23.8881 18.9567 22.1664 18.375 21.5264C17.7633 20.8514 17.6717 20.8214 17.4433 20.9481C17.0717 21.1548 17.3067 21.7498 17.4433 22.1048C17.7917 23.0098 19.2184 24.6148 21.6517 25.4148C23.7934 26.1181 29.005 26.5031 35.3067 24.0648C42.3667 21.3348 47.8784 13.7381 46.2584 7.38976C44.6117 0.933097 33.905 -1.19024 23.7717 2.40976C17.7333 4.5531 11.205 7.91643 6.51002 12.3064C0.928348 17.5264 0.0383486 22.0714 0.405015 23.9698C1.70835 30.7164 11.0067 35.1098 14.73 38.3648C14.5467 38.4664 14.3734 38.5614 14.2167 38.6481C12.35 39.5714 5.26168 43.2814 3.48835 47.1998C1.47668 51.6448 3.80835 54.8348 5.35168 55.2648C10.1333 56.5948 15.04 54.2014 17.6783 50.2681C20.315 46.3364 19.9933 41.2148 18.7833 38.8781C18.7683 38.8498 18.7517 38.8214 18.7367 38.7914C19.2183 38.5064 19.71 38.2164 20.1967 37.9298C21.1467 37.3714 22.08 36.8514 22.8883 36.4114C22.435 37.6514 22.1033 39.1398 21.9317 41.2881C21.7283 43.8114 22.7634 47.0731 24.1167 48.3564C24.7134 48.9214 25.43 48.9348 25.8834 48.9348C27.4584 48.9348 28.1767 47.6248 28.9683 46.0748C29.9384 44.1748 30.8 41.9614 30.8 41.9614C30.8 41.9614 29.72 47.9381 32.6634 47.9381C33.7367 47.9381 34.815 46.5464 35.2967 45.8381C35.2984 45.8464 35.2984 45.8498 35.2984 45.8498C35.2984 45.8498 35.3267 45.8031 35.3817 45.7114C35.4934 45.5414 35.5567 45.4331 35.5567 45.4331C35.5567 45.4331 35.5583 45.4214 35.5617 45.4014C35.9934 44.6531 36.95 42.9464 38.3834 40.1314C40.2367 36.4948 42.0134 31.9381 42.0134 31.9381C42.0134 31.9381 42.1783 33.0514 42.72 34.8948C43.0383 35.9781 43.715 37.1764 44.25 38.3264C43.82 38.9231 43.5567 39.2648 43.5567 39.2648C43.5567 39.2648 43.5583 39.2714 43.5634 39.2831C43.22 39.7398 42.835 40.2314 42.4317 40.7114C40.9684 42.4531 39.2267 44.4431 38.9934 45.0164C38.7183 45.6931 38.7834 46.1898 39.315 46.5914C39.7034 46.8831 40.3934 46.9298 41.115 46.8814C42.43 46.7931 43.3534 46.4664 43.81 46.2681C44.5217 46.0164 45.35 45.6214 46.1267 45.0498C47.5617 43.9948 48.4267 42.4864 48.3433 40.4864C48.2967 39.3848 47.9467 38.2931 47.5017 37.2631C47.6317 37.0764 47.7617 36.8864 47.8933 36.6964C50.155 33.3898 51.91 29.7564 51.91 29.7564C51.91 29.7564 52.075 30.8698 52.6167 32.7131C52.89 33.6448 53.4317 34.6631 53.9184 35.6598C51.7917 37.3881 50.4734 39.3964 50.015 40.7131C49.1684 43.1498 49.8317 44.2531 51.075 44.5048C51.6384 44.6181 52.435 44.3598 53.0333 44.1064C53.7784 43.8598 54.6733 43.4481 55.51 42.8331C56.945 41.7781 58.325 40.3014 58.2417 38.3031C58.2033 37.3931 57.9567 36.4898 57.6217 35.6231C59.425 34.8714 61.7584 34.4548 64.7317 34.8014C71.11 35.5464 72.36 39.5281 72.1217 41.1948C71.8817 42.8614 70.545 43.7781 70.0967 44.0548C69.65 44.3314 69.5133 44.4281 69.55 44.6331C69.605 44.9314 69.8117 44.9214 70.1934 44.8564C70.7184 44.7681 73.5417 43.5014 73.6634 40.4248C73.815 36.5148 70.0733 32.2248 63.445 32.2598ZM14.2833 48.8331C12.17 51.1381 9.22002 52.0081 7.95335 51.2748C6.58668 50.4831 7.12835 47.0898 9.72002 44.6431C11.3 43.1531 13.34 41.7798 14.6933 40.9348C15.0017 40.7498 15.4534 40.4781 16.0034 40.1481C16.095 40.0964 16.1467 40.0681 16.1467 40.0681L16.145 40.0648C16.2517 40.0014 16.36 39.9364 16.4717 39.8681C17.4167 43.3498 16.5017 46.4148 14.2833 48.8331ZM29.675 38.3714C28.94 40.1648 27.4 44.7548 26.4617 44.5081C25.6567 44.2964 25.1667 40.8081 26.3017 37.3748C26.8717 35.6464 28.0917 33.5814 28.8083 32.7798C29.9617 31.4898 31.2317 31.0681 31.54 31.5914C31.9317 32.2581 30.1367 37.2464 29.675 38.3714ZM42.39 44.4381C42.0784 44.6014 41.7917 44.7031 41.66 44.6248C41.5617 44.5664 41.7883 44.3514 41.7883 44.3514C41.7883 44.3514 43.3783 42.6398 44.005 41.8614C44.37 41.4081 44.7917 40.8698 45.2517 40.2698C45.255 40.3298 45.2567 40.3898 45.2567 40.4481C45.2534 42.4981 43.2733 43.8814 42.39 44.4381ZM52.185 42.2048C51.9517 42.0398 51.9917 41.5048 52.7567 39.8364C53.0567 39.1814 53.7433 38.0798 54.9333 37.0264C55.0717 37.4598 55.155 37.8748 55.1533 38.2614C55.1383 40.8414 53.2984 41.8048 52.185 42.2048Z" fill="#F06292"/>
</g>
<defs>
<clipPath id="clip0_113_669">
<rect width="74" height="56" fill="white"/>
</clipPath>
</defs>
</svg>
