<svg width="68" height="68" viewBox="0 0 68 68" fill="none" xmlns="http://www.w3.org/2000/svg">
<g clip-path="url(#clip0_113_684)">
<path d="M25.6233 46.4998C25.6233 47.8798 24.505 48.9998 23.1233 48.9998C21.7417 48.9998 20.6233 47.8798 20.6233 46.4998V23.1665C20.6233 22.0782 21.3283 21.1148 22.365 20.7832C23.4067 20.4532 24.535 20.8332 25.1633 21.7215L53.125 61.2282C61.695 55.1815 67.3333 45.2248 67.3333 33.9998C67.3333 15.6665 52.3333 0.666504 34 0.666504C15.6667 0.666504 0.666656 15.6665 0.666656 33.9998C0.666656 52.3332 15.6667 67.3332 34 67.3332C39.32 67.3332 44.3433 66.0382 48.8167 63.7965L25.6233 31.0265V46.4998ZM42.29 21.4998C42.29 20.1198 43.4083 18.9998 44.79 18.9998C46.1717 18.9998 47.29 20.1198 47.29 21.4998V44.5665L42.29 37.5215V21.4998Z" fill="#212121"/>
</g>
<defs>
<clipPath id="clip0_113_684">
<rect width="68" height="68" fill="white"/>
</clipPath>
</defs>
</svg>
