<svg width="64" height="80" viewBox="0 0 64 80" fill="none" xmlns="http://www.w3.org/2000/svg">
<g clip-path="url(#clip0_113_791)">
<path fill-rule="evenodd" clip-rule="evenodd" d="M2.83812 73.1933L0.396868 8.18513C0.319993 6.03826 1.96999 4.22138 4.11312 4.09013L47.4406 1.38076L50.75 2.50013L55.0531 0.904508L59.3956 0.632633C61.5762 0.493883 63.4569 2.14951 63.5975 4.33013C63.6031 4.41451 63.605 4.50076 63.605 4.58701V75.4189C63.6031 77.607 61.8275 79.3789 59.6394 79.377C59.5812 79.377 59.5231 79.3751 59.4669 79.3733L6.61812 76.9995C4.55937 76.9076 2.91687 75.2539 2.83812 73.1933Z" fill="#FF4081"/>
<path fill-rule="evenodd" clip-rule="evenodd" d="M55.0493 0.904297L47.4425 1.3768L47.0731 10.3037C47.06 10.6299 47.3131 10.9037 47.6393 10.9187C47.7762 10.9243 47.9093 10.883 48.0181 10.8005L51.4831 8.16992L54.4118 10.478C54.6668 10.6805 55.04 10.6374 55.2406 10.3824C55.3268 10.2718 55.3718 10.1349 55.3681 9.9943L55.0531 0.906172L55.0493 0.904297ZM49.1281 30.7899C47.7387 31.8718 37.3587 32.6087 37.3587 31.0693C37.58 25.1912 34.9493 24.9343 33.485 24.9343C32.0993 24.9343 29.7593 25.3524 29.7593 28.5024C29.7593 31.7105 33.1775 33.5218 37.19 35.648C42.8881 38.6687 49.79 42.3268 49.79 51.5237C49.79 60.3437 42.6237 65.2112 33.4887 65.2112C24.0593 65.2112 15.8168 61.3955 16.7468 48.1693C17.1125 46.6187 29.1031 46.988 29.1031 48.1693C28.9531 53.6274 30.1981 55.2324 33.3406 55.2324C35.7537 55.2324 36.8487 53.9012 36.8487 51.6643C36.8487 48.2743 33.29 46.2737 29.1912 43.9749C23.6431 40.8605 17.1143 37.1949 17.1143 28.7799C17.1143 20.3855 22.8875 14.7868 33.1943 14.7868C43.5012 14.7868 49.1281 20.3012 49.1281 30.7899Z" fill="white"/>
</g>
<defs>
<clipPath id="clip0_113_791">
<rect width="64" height="80" fill="white"/>
</clipPath>
</defs>
</svg>
