<svg width="80" height="44" viewBox="0 0 80 44" fill="none" xmlns="http://www.w3.org/2000/svg">
<g clip-path="url(#clip0_113_703)">
<path d="M40 43.5C18.22 43.5 0.5 33.855 0.5 22C0.5 10.145 18.22 0.5 40 0.5C61.78 0.5 79.5 10.145 79.5 22C79.5 33.855 61.78 43.5 40 43.5Z" fill="#DCD5F2"/>
<path d="M40 1C61.505 1 79 10.421 79 22C79 33.579 61.505 43 40 43C18.495 43 1 33.579 1 22C1 10.421 18.495 1 40 1ZM40 0C17.909 0 0 9.85 0 22C0 34.15 17.909 44 40 44C62.091 44 80 34.15 80 22C80 9.85 62.091 0 40 0Z" fill="#8B75A1"/>
<path d="M25.112 16C26.837 16 28.326 16.622 29.196 17.706C29.945 18.64 30.177 19.877 29.864 21.283C29.023 25.074 27.395 26 21.57 26H17.43L19.18 16H25.112ZM25.112 14H17.5L14 34H16L17.056 28H21.571C27.434 28 30.624 27.095 31.817 21.716C32.842 17.096 29.436 14 25.112 14ZM61.112 16C62.837 16 64.326 16.622 65.196 17.706C65.945 18.64 66.177 19.877 65.864 21.283C65.023 25.074 63.395 26 57.57 26H53.43L55.18 16H61.112ZM61.112 14H53.5L50 34H52L53.056 28H57.571C63.434 28 66.624 27.095 67.817 21.716C68.842 17.096 65.436 14 61.112 14Z" fill="#36404D"/>
<path d="M49.072 15.212C48.193 14.348 46.644 14 44.334 14H38.796L40 8H37.9L34 28H35.99L38.378 16H38.797H44.335C46.673 16 47.429 16.4 47.67 16.637C48.013 16.975 48.094 17.863 47.887 19L46.12 28H48.226L49.852 19.37C50.199 17.462 49.936 16.062 49.072 15.212Z" fill="#36404D"/>
</g>
<defs>
<clipPath id="clip0_113_703">
<rect width="80" height="44" fill="white"/>
</clipPath>
</defs>
</svg>
