<svg width="68" height="68" viewBox="0 0 68 68" fill="none" xmlns="http://www.w3.org/2000/svg">
<g clip-path="url(#clip0_113_766)">
<path d="M0.25 7.75C0.25 3.60812 3.60812 0.25 7.75 0.25H60.25C64.3919 0.25 67.75 3.60812 67.75 7.75V60.25C67.75 64.3919 64.3919 67.75 60.25 67.75H7.75C3.60812 67.75 0.25 64.3919 0.25 60.25V7.75Z" fill="#03A9F4"/>
<path d="M26.53 24.9512H22.7762V33.2649H26.4756C27.5012 33.2649 28.2944 32.9293 28.8569 32.258C29.4194 31.5868 29.6987 30.6099 29.6987 29.3274C29.6987 27.9962 29.4119 26.9387 28.8381 26.1512C28.2644 25.3637 27.4937 24.9643 26.53 24.9512Z" fill="#020F16"/>
<path d="M5.875 5.875V62.125H62.125V5.875H5.875ZM32.8094 35.4794C31.2606 36.9944 29.1119 37.75 26.365 37.75H22.7762V47.125H17.3931V20.4644H26.4756C29.1119 20.4644 31.2156 21.2838 32.7831 22.9188C34.3506 24.5538 35.1363 26.6781 35.1363 29.29C35.1363 31.9019 34.36 33.9644 32.8094 35.4794ZM50.2787 45.88C48.9494 46.9544 47.2019 47.4906 45.0419 47.4906C43.5887 47.4906 42.3062 47.2075 41.1962 46.6394C40.0863 46.0712 39.2144 45.28 38.5863 44.2675C37.9581 43.255 37.6431 42.1619 37.6431 40.99H42.5687C42.595 41.8919 42.8031 42.5706 43.2006 43.0225C43.5981 43.4744 44.2469 43.6994 45.1506 43.6994C46.5419 43.6994 47.2375 43.0713 47.2375 41.8131C47.2375 41.3744 47.0275 40.9675 46.6056 40.5962C46.1838 40.225 45.25 39.7225 43.7969 39.0869C41.6613 38.2206 40.1931 37.3244 39.3925 36.3944C38.5919 35.4644 38.1925 34.3131 38.1925 32.9331C38.1925 31.1987 38.8187 29.7681 40.0694 28.6394C41.32 27.5106 42.9794 26.9463 45.04 26.9463C47.2113 26.9463 48.9513 27.5087 50.2581 28.63C51.565 29.7512 52.2175 31.2606 52.2175 33.1525H47.035C47.035 31.5419 46.3656 30.7356 45.0213 30.7356C44.4719 30.7356 44.0219 30.9062 43.6656 31.2475C43.3094 31.5887 43.135 32.0669 43.135 32.6763C43.135 33.115 43.33 33.5031 43.7219 33.8387C44.1138 34.1744 45.0325 34.6544 46.4875 35.2769C48.6006 36.0588 50.0913 36.9287 50.965 37.8869C51.8387 38.845 52.2737 40.0881 52.2737 41.6125C52.2737 43.3844 51.6081 44.8056 50.2787 45.88Z" fill="#020F16"/>
</g>
<defs>
<clipPath id="clip0_113_766">
<rect width="68" height="68" fill="white"/>
</clipPath>
</defs>
</svg>
