<svg width="56" height="64" viewBox="0 0 56 64" fill="none" xmlns="http://www.w3.org/2000/svg">
<g clip-path="url(#clip0_110_643)">
<path d="M-0.01334 3.96016L4.36499 53.5768C4.54666 55.6385 5.98166 57.3768 7.97166 57.9452L25.71 63.0135C27.2067 63.4418 28.7917 63.4418 30.2883 63.0135L48.0267 57.9452C50.0167 57.3768 51.4517 55.6402 51.6333 53.5768L56.0117 3.96016C56.185 2.01016 54.65 0.333496 52.6933 0.333496H3.30666C1.34999 0.333496 -0.185007 2.01016 -0.01334 3.96016Z" fill="url(#paint0_linear_110_643)"/>
<path d="M28 5.3335V58.5002L44.46 53.7968C45.7883 53.4168 46.745 52.2568 46.865 50.8818L50.675 7.14516C50.76 6.17016 49.9933 5.3335 49.015 5.3335H28Z" fill="#F09601"/>
<path d="M28 33.6665V26.9998H42.3333L41.1667 46.1665L28 50.4998V43.4998L34.8333 41.1665L35.3333 33.6665H28ZM42.8333 20.3332L43.3333 13.6665H28V20.3332H42.8333Z" fill="white"/>
<path d="M28 43.4998V50.4998L14.8333 46.1665L14.1667 36.9998H20.8333L21.1667 41.1665L28 43.4998ZM19.8333 20.3332H28V13.6665H12.8333L14 33.6665H28V26.9998H20.3333L19.8333 20.3332Z" fill="#D6E0E9"/>
<path opacity="0.05" d="M43.3333 13.6667L42.8333 20.3333H28H19.8333L20.3333 27H28H42.3333L41.1667 46.1667L28 50.5L14.8333 46.1667L14.1667 37H20.8333L21.1667 41.1667L28 43.5L34.8333 41.1667L35.3333 33.6667H28H14L12.8333 13.6667H28H43.3333ZM45.13 12H43.3333H28H12.8333H11.0667L11.17 13.7633L12.3367 33.7633L12.4283 35.3333H12.375L12.505 37.1217L13.1717 46.2883L13.2533 47.4017L14.3133 47.75L27.48 52.0833L28 52.255L28.5217 52.0833L41.6883 47.75L42.7617 47.3967L42.83 46.2683L43.9967 27.1017L44.105 25.3333H42.3333H28H21.88L21.63 22H28H42.8333H44.38L44.495 20.4583L44.995 13.7917L45.13 12ZM22.3717 35.3333H28H33.5517L33.2433 39.9483L28 41.7383L22.74 39.9433L22.4933 36.8667L22.3717 35.3333Z" fill="black"/>
<path opacity="0.07" d="M43.3333 13.6668L42.8333 20.3335H28H19.8333L20.3333 27.0002H28H42.3333L41.1667 46.1668L28 50.5002L14.8333 46.1668L14.1667 37.0002H20.8333L21.1667 41.1668L28 43.5002L34.8333 41.1668L35.3333 33.6668H28H14L12.8333 13.6668H28H43.3333ZM44.2317 12.8335H43.3333H28H12.8333H11.95L12.0017 13.7152L13.1683 33.7152L13.2133 34.5002H14H28H34.4433L34.04 40.5568L28 42.6202L21.9533 40.5552L21.6633 36.9335L21.6017 36.1668H20.8333H14.1667H13.27L13.335 37.0602L14.0017 46.2268L14.0417 46.7835L14.5717 46.9585L27.7383 51.2918L28 51.3768L28.26 51.2918L41.4267 46.9585L41.9633 46.7818L41.9983 46.2168L43.165 27.0502L43.2183 26.1668H42.3333H28H21.1067L20.7317 21.1668H28H42.8333H43.6067L43.665 20.3952L44.165 13.7285L44.2317 12.8335Z" fill="black"/>
</g>
<defs>
<linearGradient id="paint0_linear_110_643" x1="18.3467" y1="-3.97817" x2="44.9317" y2="69.0602" gradientUnits="userSpaceOnUse">
<stop stop-color="#F09701"/>
<stop offset="1" stop-color="#E36001"/>
</linearGradient>
<clipPath id="clip0_110_643">
<rect width="56" height="64" fill="white"/>
</clipPath>
</defs>
</svg>
