<svg width="68" height="68" viewBox="0 0 68 68" fill="none" xmlns="http://www.w3.org/2000/svg">
<g clip-path="url(#clip0_113_760)">
<path d="M0.25 7.75C0.25 3.60812 3.60812 0.25 7.75 0.25H60.25C64.3919 0.25 67.75 3.60812 67.75 7.75V60.25C67.75 64.3919 64.3919 67.75 60.25 67.75H7.75C3.60812 67.75 0.25 64.3919 0.25 60.25V7.75Z" fill="#FF5722"/>
<path d="M5.875 5.875V62.125H62.125V5.875H5.875ZM33.4206 47.125L31.9919 41.6688H24.6494L23.2225 47.125H17.5281L25.8588 20.4644H30.7844L39.1712 47.125H33.4206ZM46.8438 47.125H41.6444V27.3137H46.8438V47.125ZM46.285 24.1637C45.7769 24.6887 45.0925 24.9513 44.2244 24.9513C43.3562 24.9513 42.6719 24.6887 42.1637 24.1637C41.6556 23.6388 41.4044 22.9787 41.4044 22.1856C41.4044 21.3794 41.6612 20.7212 42.1731 20.2075C42.685 19.6937 43.3713 19.4387 44.2244 19.4387C45.0775 19.4387 45.7619 19.6956 46.2756 20.2075C46.7894 20.7194 47.0444 21.3794 47.0444 22.1856C47.0444 22.9787 46.7912 23.6388 46.285 24.1637Z" fill="#1C0802"/>
<path d="M25.8231 37.1817H30.8031L28.3131 27.6792L25.8231 37.1817Z" fill="#1C0802"/>
</g>
<defs>
<clipPath id="clip0_113_760">
<rect width="68" height="68" fill="white"/>
</clipPath>
</defs>
</svg>
