<svg width="80" height="61" viewBox="0 0 80 61" fill="none" xmlns="http://www.w3.org/2000/svg">
<g clip-path="url(#clip0_113_711)">
<path d="M79.2116 25.0784C78.995 24.9084 76.97 23.4 72.6983 23.4C71.57 23.405 70.445 23.5 69.3333 23.685C68.5066 18.095 63.9683 15.4684 63.7583 15.3467L62.6116 14.6934L61.8566 15.7667C60.9116 17.21 60.0766 18.7 59.6716 20.3717C58.9066 23.5634 59.3716 26.56 61.015 29.1217C59.0283 30.2134 55.6433 30.31 55 30.3334H2.63664C1.25997 30.335 0.143304 31.4334 0.134971 32.79C0.0733041 37.345 0.723304 42.045 2.31164 46.3217C4.12664 51.0184 6.8283 54.4784 10.3416 56.595C14.2783 58.9734 20.675 60.3334 27.9266 60.3334C31.2016 60.3434 34.4716 60.0517 37.6916 59.46C42.1683 58.6484 46.4766 57.105 50.4366 54.8934C53.7 53.0284 56.6366 50.6567 59.135 47.8684C63.31 43.205 65.7966 38.0134 67.6466 33.3984C67.895 33.3984 68.1433 33.3984 68.3833 33.3984C72.955 33.3984 75.765 31.5934 77.315 30.0817C78.345 29.1167 79.15 27.9417 79.6716 26.64L80 25.6934L79.2116 25.0784Z" fill="#2395EC"/>
<path d="M13.3334 28.6668H8.33335C7.41335 28.6668 6.66669 27.9202 6.66669 27.0002V22.0002C6.66669 21.0802 7.41335 20.3335 8.33335 20.3335H13.3334C14.2534 20.3335 15 21.0802 15 22.0002V27.0002C15 27.9202 14.2534 28.6668 13.3334 28.6668Z" fill="#2395EC"/>
<path d="M23.3334 28.6668H18.3334C17.4134 28.6668 16.6667 27.9202 16.6667 27.0002V22.0002C16.6667 21.0802 17.4134 20.3335 18.3334 20.3335H23.3334C24.2534 20.3335 25 21.0802 25 22.0002V27.0002C25 27.9202 24.2534 28.6668 23.3334 28.6668Z" fill="#2395EC"/>
<path d="M33.3334 28.6668H28.3334C27.4134 28.6668 26.6667 27.9202 26.6667 27.0002V22.0002C26.6667 21.0802 27.4134 20.3335 28.3334 20.3335H33.3334C34.2534 20.3335 35 21.0802 35 22.0002V27.0002C35 27.9202 34.2534 28.6668 33.3334 28.6668Z" fill="#2395EC"/>
<path d="M43.3334 28.6668H38.3334C37.4134 28.6668 36.6667 27.9202 36.6667 27.0002V22.0002C36.6667 21.0802 37.4134 20.3335 38.3334 20.3335H43.3334C44.2534 20.3335 45 21.0802 45 22.0002V27.0002C45 27.9202 44.2534 28.6668 43.3334 28.6668Z" fill="#2395EC"/>
<path d="M23.3334 18.6668H18.3334C17.4134 18.6668 16.6667 17.9202 16.6667 17.0002V12.0002C16.6667 11.0802 17.4134 10.3335 18.3334 10.3335H23.3334C24.2534 10.3335 25 11.0802 25 12.0002V17.0002C25 17.9202 24.2534 18.6668 23.3334 18.6668Z" fill="#2395EC"/>
<path d="M33.3334 18.6668H28.3334C27.4134 18.6668 26.6667 17.9202 26.6667 17.0002V12.0002C26.6667 11.0802 27.4134 10.3335 28.3334 10.3335H33.3334C34.2534 10.3335 35 11.0802 35 12.0002V17.0002C35 17.9202 34.2534 18.6668 33.3334 18.6668Z" fill="#2395EC"/>
<path d="M43.3334 18.6668H38.3334C37.4134 18.6668 36.6667 17.9202 36.6667 17.0002V12.0002C36.6667 11.0802 37.4134 10.3335 38.3334 10.3335H43.3334C44.2534 10.3335 45 11.0802 45 12.0002V17.0002C45 17.9202 44.2534 18.6668 43.3334 18.6668Z" fill="#2395EC"/>
<path d="M43.3334 8.66683H38.3334C37.4134 8.66683 36.6667 7.92016 36.6667 7.00016V2.00016C36.6667 1.08016 37.4134 0.333496 38.3334 0.333496H43.3334C44.2534 0.333496 45 1.08016 45 2.00016V7.00016C45 7.92016 44.2534 8.66683 43.3334 8.66683Z" fill="#2395EC"/>
<path d="M53.3334 28.6668H48.3334C47.4134 28.6668 46.6667 27.9202 46.6667 27.0002V22.0002C46.6667 21.0802 47.4134 20.3335 48.3334 20.3335H53.3334C54.2534 20.3335 55 21.0802 55 22.0002V27.0002C55 27.9202 54.2534 28.6668 53.3334 28.6668Z" fill="#2395EC"/>
</g>
<defs>
<clipPath id="clip0_113_711">
<rect width="80" height="61" fill="white"/>
</clipPath>
</defs>
</svg>
