<svg width="73" height="74" viewBox="0 0 73 74" fill="none" xmlns="http://www.w3.org/2000/svg">
<g clip-path="url(#clip0_113_779)">
<path d="M60.375 26.7502C51.0544 26.7502 43.5 19.1958 43.5 9.87518C43.5 6.17205 44.7056 2.75955 46.7269 -0.0229492C42.5063 3.04455 39.75 8.00768 39.75 13.6252C39.75 22.9458 47.3044 30.5002 56.625 30.5002C62.2425 30.5002 67.2056 27.7439 70.2731 23.5233C67.4906 25.5445 64.0763 26.7502 60.375 26.7502Z" fill="url(#paint0_linear_113_779)"/>
<path d="M45.375 62.375C24.6638 62.375 7.875 45.5863 7.875 24.875C7.875 19.6306 8.95875 14.6413 10.9031 10.1094C4.39687 16.8537 0.375 26.0131 0.375 36.125C0.375 56.8363 17.1638 73.625 37.875 73.625C53.3419 73.625 66.6131 64.2575 72.3469 50.8906C65.5256 57.9594 55.9744 62.375 45.375 62.375Z" fill="url(#paint1_linear_113_779)"/>
<path d="M53.8125 43.6252C38.7975 43.6252 26.625 31.4527 26.625 16.4377C26.625 12.0108 27.705 7.84268 29.5837 4.14893C24.3112 9.1083 21 16.1283 21 23.9377C21 38.9527 33.1725 51.1252 48.1875 51.1252C58.7756 51.1252 67.9275 45.0596 72.4163 36.2264C67.5525 40.8014 61.0181 43.6252 53.8125 43.6252Z" fill="url(#paint2_linear_113_779)"/>
</g>
<defs>
<linearGradient id="paint0_linear_113_779" x1="36.7612" y1="-10.7723" x2="72.4462" y2="51.0371" gradientUnits="userSpaceOnUse">
<stop stop-color="#262626" stop-opacity="0"/>
<stop offset="1" stop-color="#262626" stop-opacity="0.8"/>
</linearGradient>
<linearGradient id="paint1_linear_113_779" x1="-2.265" y1="-18.3644" x2="75.735" y2="116.737" gradientUnits="userSpaceOnUse">
<stop stop-color="#262626" stop-opacity="0"/>
<stop offset="1" stop-color="#262626" stop-opacity="0.8"/>
</linearGradient>
<linearGradient id="paint2_linear_113_779" x1="18.225" y1="-15.6042" x2="75.1144" y2="82.9308" gradientUnits="userSpaceOnUse">
<stop stop-color="#262626" stop-opacity="0"/>
<stop offset="1" stop-color="#262626" stop-opacity="0.8"/>
</linearGradient>
<clipPath id="clip0_113_779">
<rect width="73" height="74" fill="white"/>
</clipPath>
</defs>
</svg>
