<svg width="60" height="60" viewBox="0 0 60 60" fill="none" xmlns="http://www.w3.org/2000/svg">
<g clip-path="url(#clip0_110_658)">
<path d="M0 60V0H60V60H0Z" fill="#FFD600"/>
<path d="M39.23 44.9115C40.3833 46.7848 41.6367 48.5798 44.2917 48.5798C46.5217 48.5798 47.6917 47.4715 47.6917 45.9382C47.6917 44.1032 46.4817 43.4515 44.0283 42.3832L42.6833 41.8098C38.8017 40.1632 36.22 38.0998 36.22 33.7415C36.22 29.7248 39.295 26.6682 44.1 26.6682C47.5217 26.6682 49.98 27.8532 51.7533 30.9565L47.5633 33.6348C46.6417 31.9882 45.645 31.3398 44.1 31.3398C42.5233 31.3398 41.525 32.3348 41.525 33.6348C41.525 35.2415 42.525 35.8915 44.8333 36.8865L46.1783 37.4598C50.7533 39.4082 53.3333 41.3982 53.3333 45.8715C53.3333 50.6915 49.5267 53.3332 44.4167 53.3332C39.4183 53.3332 36.58 50.8248 35 47.7198L39.23 44.9115ZM19.92 45.0482C20.7633 46.5582 22.045 47.7198 23.8883 47.7198C25.6517 47.7198 26.6667 47.0232 26.6667 44.3148V26.6665H32.2217V45.1682C32.2217 50.7798 28.9667 53.3332 24.2133 53.3332C19.9183 53.3332 16.8183 50.4232 15.555 47.7198L19.92 45.0482Z" fill="#000001"/>
</g>
<defs>
<clipPath id="clip0_110_658">
<rect width="60" height="60" fill="white"/>
</clipPath>
</defs>
</svg>
