<svg width="56" height="64" viewBox="0 0 56 64" fill="none" xmlns="http://www.w3.org/2000/svg">
<g clip-path="url(#clip0_110_636)">
<path d="M-0.01334 3.96016L4.36499 53.5768C4.54666 55.6385 5.98166 57.3768 7.97166 57.9452L25.71 63.0135C27.2067 63.4418 28.7917 63.4418 30.2883 63.0135L48.0267 57.9452C50.0167 57.3768 51.4517 55.6402 51.6333 53.5768L56.0117 3.96016C56.185 2.01016 54.65 0.333496 52.6933 0.333496H3.30666C1.34999 0.333496 -0.185007 2.01016 -0.01334 3.96016Z" fill="url(#paint0_linear_110_636)"/>
<path d="M28 5.3335V58.5002L44.46 53.7968C45.7883 53.4168 46.745 52.2568 46.865 50.8818L50.675 7.14516C50.76 6.17016 49.9933 5.3335 49.015 5.3335H28Z" fill="#35C1F1"/>
<path d="M43.1667 13.6665H28V20.3332H36.1667L35.6667 26.9998H28V33.6665H35.3333L34.8333 41.1665L28 43.4998V50.4998L41.1667 46.1665L42.3333 26.9998L43.1667 13.6665Z" fill="white"/>
<path d="M28 13.6665V20.3332H13.1667L12.6667 13.6665H28ZM20.3333 26.9998L20.6667 33.6665H28V26.9998H20.3333ZM21 36.9998H14.3333L14.8333 46.1665L28 50.4998V43.4998L21.1667 41.1665L21 36.9998Z" fill="#D6E0E9"/>
<path opacity="0.05" d="M43.1667 13.6667L42.3333 27L41.1667 46.1667L28 50.5L14.8333 46.1667L14.3333 37H21L21.1667 41.1667L28 43.5L34.8333 41.1667L35.3333 33.6667H28H20.6667L20.3333 27H28H35.6667L36.1667 20.3333H28H13.1667L12.6667 13.6667H28H43.1667ZM44.94 12H43.1667H28H12.6667H10.87L11.005 13.7917L11.505 20.4583L11.62 22H13.1667H28H34.37L34.12 25.3333H28H20.3333H18.5817L18.6683 27.0833L19.0017 33.75L19.0817 35.3333H14.3333H12.5733L12.67 37.09L13.17 46.2567L13.2317 47.3933L14.3133 47.75L27.48 52.0833L28 52.255L28.5217 52.0833L41.6883 47.75L42.7617 47.3967L42.83 46.2683L43.9967 27.1017L44.83 13.7717L44.94 12ZM22.6017 35.3333H28H33.5517L33.2433 39.9483L28 41.7383L22.7867 39.9583L22.665 36.9333L22.6017 35.3333Z" fill="black"/>
<path opacity="0.07" d="M43.1667 13.6668L42.3333 27.0002L41.1667 46.1668L28 50.5002L14.8333 46.1668L14.3333 37.0002H21L21.1667 41.1668L28 43.5002L34.8333 41.1668L35.3333 33.6668H28H20.6667L20.3333 27.0002H28H35.6667L36.1667 20.3335H28H13.1667L12.6667 13.6668H28H43.1667ZM44.0533 12.8335H43.1667H28H12.6667H11.7683L11.835 13.7285L12.335 20.3952L12.3933 21.1668H13.1667H28H35.2683L34.8933 26.1668H28H20.3333H19.4567L19.5 27.0418L19.8333 33.7085L19.8733 34.5002H20.6667H28H34.4433L34.04 40.5568L28 42.6202L21.9767 40.5635L21.8333 36.9668L21.8 36.1668H21H14.3333H13.4533L13.5017 37.0452L14.0017 46.2118L14.0333 46.7802L14.5733 46.9585L27.74 51.2918L28 51.3768L28.26 51.2918L41.4267 46.9585L41.9633 46.7818L41.9983 46.2168L43.165 27.0502L43.9983 13.7185L44.0533 12.8335Z" fill="black"/>
</g>
<defs>
<linearGradient id="paint0_linear_110_636" x1="15.2167" y1="-12.5798" x2="41.8217" y2="60.5152" gradientUnits="userSpaceOnUse">
<stop stop-color="#2AA4F4"/>
<stop offset="1" stop-color="#007AD9"/>
</linearGradient>
<clipPath id="clip0_110_636">
<rect width="56" height="64" fill="white"/>
</clipPath>
</defs>
</svg>
