<svg width="64" height="73" viewBox="0 0 64 73" fill="none" xmlns="http://www.w3.org/2000/svg">
<g clip-path="url(#clip0_113_785)">
<path d="M64.5343 35.2819C64.5343 31.1805 61.2096 27.8558 57.108 27.8558C56.8443 27.8558 56.5841 27.8699 56.3276 27.8968L66.5274 -2.18652H23.1815L33.3672 27.8706C33.2177 27.8616 33.0675 27.8558 32.9159 27.8558C28.8145 27.8558 25.4896 31.1805 25.4896 35.2819C25.4896 38.5972 27.6623 41.4037 30.6609 42.3587C29.0772 45.1021 27.0842 47.5729 24.8216 49.7077C21.745 52.6102 18.2239 54.8109 14.4154 56.1672C9.88128 53.8379 7.74 48.6577 9.67216 44.1156C9.89016 43.6027 10.1131 43.0829 10.3258 42.5652C13.6108 41.7986 16.0585 38.8538 16.0585 35.3352C16.0585 31.2338 12.7337 27.9091 8.63217 27.9091C4.5308 27.9091 1.20588 31.2338 1.20588 35.3352C1.20588 37.8503 2.45735 40.0717 4.3701 41.4152C2.53208 45.6001 -0.169824 49.9799 -1.01157 55.0562C-2.02036 61.1397 -1.01484 67.5973 4.24677 71.2442C16.5006 79.7371 29.8021 65.9791 43.8267 62.5207C48.9095 61.2672 54.4887 61.4693 58.9668 58.8757C62.3296 56.9279 64.5465 53.7002 65.1757 50.0764C65.7972 46.4965 64.8911 42.9322 62.8071 40.042C63.885 38.753 64.5343 37.0936 64.5343 35.2819Z" fill="#99425B"/>
<path d="M63.3887 49.7661C62.8425 52.9122 60.8994 55.6604 58.0577 57.3063C55.4087 58.8406 52.2344 59.2985 48.8735 59.7831C47.0731 60.0427 45.2113 60.3113 43.3925 60.7598C38.5834 61.9456 33.9254 64.2594 29.4208 66.4968C20.4061 70.9745 12.6209 74.841 5.28001 69.7535C-0.097127 66.0267 0.151171 59.1315 0.77763 55.353C1.3582 51.8523 2.9278 48.6284 4.4457 45.5104C4.70797 44.9714 4.96497 44.4423 5.21508 43.9178C5.96741 44.2183 6.76763 44.4235 7.60176 44.5167C6.05665 49.616 8.48649 55.1605 13.5867 57.7806L14.2846 58.1392L15.0239 57.876C19.0558 56.4401 22.771 54.1359 26.0664 51.0269C28.1964 49.0173 30.0279 46.794 31.5331 44.4184C31.9843 44.4864 32.4459 44.5221 32.9159 44.5221C37.5967 44.5221 41.473 41.0227 42.0728 36.5031C43.9888 36.4329 46.024 36.4324 47.9511 36.5024C48.5505 41.0224 52.427 44.5221 57.108 44.5221C59.0652 44.5221 60.8807 43.9087 62.3763 42.8667C63.4147 44.9922 63.8023 47.3838 63.3887 49.7661ZM8.63213 29.7229C11.7271 29.7229 14.2447 32.2407 14.2447 35.3354C14.2447 36.4471 13.9186 37.4836 13.3585 38.3566C12.4254 39.8115 10.84 40.8089 9.01773 40.9333C8.89023 40.942 8.76181 40.948 8.63213 40.948C7.94256 40.948 7.28182 40.8221 6.67096 40.5938C5.43527 40.1313 4.40562 39.2447 3.75794 38.1126C3.28909 37.293 3.01957 36.3453 3.01957 35.3354C3.01957 32.2407 5.53738 29.7229 8.63213 29.7229ZM27.3033 35.2821C27.3033 32.4703 29.3818 30.1355 32.0828 29.7318C32.3547 29.691 32.6329 29.6696 32.9159 29.6696C34.7151 29.6696 36.317 30.522 37.3444 31.8428C37.5998 32.1709 37.8213 32.5269 37.9996 32.9071C38.3382 33.6289 38.5284 34.4335 38.5284 35.2821C38.5284 35.7308 38.474 36.167 38.3741 36.5855C37.8271 38.8753 35.8746 40.6254 33.4821 40.8662C33.296 40.8849 33.107 40.8947 32.9159 40.8947C31.7954 40.8947 30.7514 40.5633 29.8741 39.9953C28.3288 38.9943 27.3033 37.2562 27.3033 35.2821ZM50.7281 28.6082C49.5258 29.7586 48.6316 31.2285 48.1863 32.8813C46.108 32.8033 43.9041 32.8033 41.8377 32.8813C41.3631 31.1196 40.3786 29.5655 39.0544 28.3849L44.8619 16.6416L50.7281 28.6082ZM25.7112 -0.372557H63.9973L54.9546 26.2975C54.5626 26.3916 54.1803 26.5101 53.8092 26.6524L44.8763 8.42962L35.9181 26.5436C35.5309 26.4103 35.1319 26.3029 34.7234 26.2215L25.7112 -0.372557ZM62.7206 35.2821C62.7206 35.8449 62.6364 36.3881 62.4817 36.9011C62.1132 38.1213 61.3398 39.1669 60.3185 39.8819C59.408 40.5193 58.3013 40.8947 57.108 40.8947C54.5166 40.8947 52.3305 39.1287 51.6879 36.7371C51.5631 36.2728 51.4955 35.7853 51.4955 35.2821C51.4955 34.5149 51.6505 33.7835 51.9304 33.1169C52.0746 32.7734 52.2545 32.4487 52.4611 32.1437C53.4711 30.653 55.1757 29.6696 57.108 29.6696C57.2852 29.6696 57.4601 29.6788 57.6331 29.695C60.4826 29.9605 62.7206 32.3644 62.7206 35.2821ZM66.348 35.2821C66.348 30.771 63.0978 27.0072 58.8169 26.203L69.0574 -4H20.6518L30.9079 26.2645C26.7755 27.184 23.6759 30.8768 23.6759 35.2821C23.6759 38.59 25.4241 41.4958 28.044 43.1285C26.7839 45.006 25.2894 46.7728 23.577 48.3884C20.861 50.9507 17.8353 52.8937 14.5733 54.1722C11.2878 52.1084 9.89884 48.2163 11.3413 44.8256L11.4543 44.5599C11.525 44.3939 11.5958 44.2276 11.6663 44.0613C15.2751 42.8025 17.8721 39.3677 17.8721 35.3354C17.8721 30.2403 13.7271 26.0954 8.63213 26.0954C3.53721 26.0954 -0.607872 30.2403 -0.607872 35.3354C-0.607872 37.9071 0.449166 40.2359 2.15044 41.9127C1.8421 42.5698 1.51745 43.2382 1.18427 43.9225C-0.371181 47.1174 -2.13412 50.7385 -2.80084 54.7595C-4.12504 62.7453 -1.98902 69.1291 3.21364 72.7349C6.37078 74.923 9.57672 75.7832 12.8031 75.7832C18.8784 75.7832 25.0238 72.7311 31.0345 69.7456C35.3633 67.5956 39.8396 65.3721 44.2611 64.2817C45.9061 63.876 47.599 63.6319 49.3914 63.3734C52.9453 62.8607 56.6205 62.3307 59.8758 60.4453C63.6492 58.2596 66.2323 54.5934 66.9627 50.3868C67.5897 46.7755 66.8352 43.1584 64.9948 40.091C65.8527 38.6892 66.348 37.0425 66.348 35.2821Z" fill="white"/>
</g>
<defs>
<clipPath id="clip0_113_785">
<rect width="64" height="73" fill="white"/>
</clipPath>
</defs>
</svg>
