<svg width="80" height="83" viewBox="0 0 80 83" fill="none" xmlns="http://www.w3.org/2000/svg">
<path fill-rule="evenodd" clip-rule="evenodd" d="M79.4016 18.4577C79.4311 18.5665 79.4461 18.6786 79.4464 18.7913V36.3043C79.4464 36.5291 79.3869 36.7499 79.274 36.9444C79.1611 37.1389 78.9986 37.3002 78.8032 37.412L64.0688 45.8749V62.6488C64.0688 63.1053 63.8256 63.5267 63.4288 63.7566L32.672 81.4196C32.6016 81.4595 32.5248 81.485 32.448 81.5122C32.4192 81.5218 32.392 81.5393 32.3616 81.5473C32.1466 81.6038 31.9206 81.6038 31.7056 81.5473C31.6704 81.5377 31.6384 81.5186 31.6048 81.5058C31.5344 81.4803 31.4608 81.4579 31.3936 81.4196L0.6432 63.7566C0.447852 63.6446 0.285537 63.4833 0.172615 63.2888C0.0596934 63.0943 0.000154783 62.8736 0 62.6488L0 10.1098C0 9.99491 0.016 9.88318 0.0448 9.77464C0.0544 9.73793 0.0768 9.70441 0.0896 9.6677C0.1136 9.60066 0.136 9.53203 0.1712 9.46978C0.1952 9.42828 0.2304 9.39476 0.2592 9.35645C0.296 9.30537 0.3296 9.2527 0.3728 9.20801C0.4096 9.17129 0.4576 9.14416 0.4992 9.11224C0.5456 9.07393 0.5872 9.03243 0.64 9.0021L16.0176 0.170583C16.2123 0.0588211 16.433 0 16.6576 0C16.8822 0 17.1029 0.0588211 17.2976 0.170583L32.6736 9.0021H32.6768C32.728 9.03403 32.7712 9.07393 32.8176 9.11064C32.8592 9.14256 32.9056 9.1713 32.9424 9.20641C32.9872 9.2527 33.0192 9.30537 33.0576 9.35645C33.0848 9.39476 33.1216 9.42828 33.144 9.46978C33.1808 9.53362 33.2016 9.60066 33.2272 9.6677C33.24 9.70441 33.2624 9.73793 33.272 9.77624C33.3015 9.88501 33.3165 9.99716 33.3168 10.1098V42.9252L46.1296 35.5653V18.7897C46.1296 18.678 46.1456 18.5647 46.1744 18.4577C46.1856 18.4194 46.2064 18.3859 46.2192 18.3492C46.2448 18.2821 46.2672 18.2135 46.3024 18.1513C46.3264 18.1098 46.3616 18.0762 46.3888 18.0379C46.4272 17.9869 46.4592 17.9342 46.504 17.8895C46.5408 17.8528 46.5872 17.8256 46.6288 17.7937C46.6768 17.7554 46.7184 17.7139 46.7696 17.6836L62.1488 8.85206C62.3434 8.74015 62.5641 8.68124 62.7888 8.68124C63.0135 8.68124 63.2342 8.74015 63.4288 8.85206L78.8048 17.6836C78.8592 17.7155 78.9008 17.7554 78.9488 17.7921C78.9888 17.824 79.0352 17.8528 79.072 17.8879C79.1168 17.9342 79.1488 17.9869 79.1872 18.0379C79.216 18.0762 79.2512 18.1098 79.2736 18.1513C79.3104 18.2135 79.3312 18.2821 79.3568 18.3492C79.3712 18.3859 79.392 18.4194 79.4016 18.4577ZM76.8832 35.5653V21.002L71.5024 24.0921L64.0688 28.3618V42.9252L76.8848 35.5653H76.8832ZM61.5072 61.9098V47.3369L54.1952 51.5029L33.3152 63.391V78.1012L61.5072 61.9098ZM2.5632 12.3205V61.9098L30.752 78.0996V63.3926L16.0256 55.0783L16.0208 55.0751L16.0144 55.0719C15.9648 55.0432 15.9232 55.0017 15.8768 54.9665C15.8368 54.9346 15.7904 54.9091 15.7552 54.874L15.752 54.8692C15.7104 54.8293 15.6816 54.7798 15.6464 54.7351C15.6144 54.692 15.576 54.6553 15.5504 54.6106L15.5488 54.6058C15.52 54.5579 15.5024 54.5005 15.4816 54.4462C15.4608 54.3983 15.4336 54.3536 15.4208 54.3025C15.4048 54.2419 15.4016 54.1764 15.3952 54.1142C15.3888 54.0663 15.376 54.0184 15.376 53.9705V53.9674V19.6804L7.944 15.4091L2.5632 12.3205ZM16.6592 2.75316L3.848 10.1098L16.656 17.4665L29.4656 10.1082L16.656 2.75316H16.6592ZM23.3216 48.6649L30.7536 44.3968V12.3205L25.3728 15.4107L17.9392 19.6804V51.7567L23.3216 48.6649ZM62.7888 11.4346L49.9792 18.7913L62.7888 26.148L75.5968 18.7897L62.7888 11.4346ZM61.5072 28.3618L54.0736 24.0921L48.6928 21.002V35.5653L56.1248 39.8334L61.5072 42.9252V28.3618ZM32.032 61.1804L50.8208 50.4798L60.2128 45.1326L47.4128 37.7808L32.6752 46.2452L19.2432 53.9594L32.032 61.1804Z" fill="#FF2D20"/>
</svg>
