<svg width="26" height="21" viewBox="0 0 26 21" fill="none" xmlns="http://www.w3.org/2000/svg">
<path d="M23.3578 0.295654H3.05292C1.87176 0.295654 0.91066 1.25656 0.91066 2.43786V18.0709C0.91066 19.254 1.87176 20.2167 3.05292 20.2167H23.3579C24.539 20.2167 25.5001 19.254 25.5001 18.0709V2.43786C25.5001 1.25656 24.539 0.295654 23.3578 0.295654ZM2.72139 2.43786C2.72139 2.257 2.86998 2.10994 3.05287 2.10994H23.3578C23.5387 2.10994 23.6855 2.257 23.6855 2.43786V18.0709C23.6855 18.2555 23.5387 18.406 23.3578 18.406H3.05292C2.86998 18.406 2.72144 18.2555 2.72144 18.0709L2.72139 2.43786Z" fill="#FF8D8D"/>
<path d="M9.55816 10.5745C9.52118 10.6049 9.48742 10.6387 9.4503 10.6691C9.36265 10.7432 9.06945 11.0027 9.06945 11.0027C7.89295 12.0275 6.70656 13.0993 5.54024 14.1881L5.42902 14.296L6.25146 15.2601C6.25146 15.2601 6.6897 14.9129 6.83469 14.7982C7.91663 13.9454 9.00212 13.059 10.0671 12.1656C10.2862 11.987 10.502 11.805 10.7177 11.6197C10.8593 11.5051 10.9976 11.3837 11.1391 11.2657L12.5313 12.4858C12.5615 12.5128 12.6088 12.55 12.6424 12.57C12.6457 12.5734 12.6491 12.5734 12.6524 12.5768C12.811 12.6813 13.0064 12.7385 13.2053 12.7385C13.4042 12.7385 13.6031 12.6781 13.7649 12.5768C13.8053 12.55 13.8492 12.5162 13.8796 12.4925L13.9098 12.4657L15.3322 11.2521C15.4806 11.3735 15.629 11.4983 15.7805 11.6196C15.9828 11.7845 16.185 11.9532 16.3906 12.1151C17.5367 13.0486 18.6794 13.9521 19.7883 14.7982C19.8894 14.879 20.2467 15.152 20.2467 15.152L20.8906 14.4004L20.7827 14.296C19.6299 13.1869 18.4568 12.0982 17.3006 11.0566C17.1862 10.9555 17.0749 10.851 16.9603 10.7499L16.8727 10.6722L16.4887 10.3279L16.4485 10.291L16.5525 10.2004C16.8187 9.97111 17.0817 9.74208 17.3411 9.50929C18.3658 8.6161 19.3939 7.6927 20.4051 6.75547C20.5602 6.61063 20.7154 6.46919 20.8703 6.32415L20.9816 6.21964L20.5636 5.73079L20.1592 5.25562C20.1592 5.25562 19.7277 5.59271 19.5759 5.71388C18.5109 6.55343 17.4221 7.43644 16.3435 8.34312C15.9492 8.67013 15.558 9.00367 15.1671 9.33424L14.2503 10.1128L13.1986 11.0196L12.7705 10.6622L11.857 9.90037C11.7964 9.84994 11.183 9.34769 11.183 9.34769C10.7952 9.0275 10.411 8.71057 10.0201 8.39374C8.87062 7.46006 7.72798 6.55655 6.62578 5.71383C6.51119 5.62643 6.16391 5.36002 6.16391 5.36002L5.52007 6.11178L5.62794 6.21628C5.77975 6.36449 5.93468 6.50948 6.08986 6.65769C7.08078 7.60486 8.0987 8.54195 9.11003 9.45541C9.38695 9.70947 9.66704 9.95671 9.9441 10.2039L9.96211 10.2212C9.82759 10.339 9.68951 10.4535 9.55816 10.5745Z" fill="#FF8D8D"/>
</svg>
